<?xml version="1.0" encoding="UTF-8"?>
<svg version="1.1" xmlns="http://www.w3.org/2000/svg" width="470" height="468">
<path d="M0 0 C155.1 0 310.2 0 470 0 C470 154.44 470 308.88 470 468 C314.9 468 159.8 468 0 468 C0 313.56 0 159.12 0 0 Z " fill="#FEFEFE" transform="translate(0,0)"/>
<path d="M0 0 C0.66 0 1.32 0 2 0 C2.29132813 0.67804688 2.58265625 1.35609375 2.8828125 2.0546875 C9.42886798 16.91711536 18.19259643 27.27492273 29.66796875 38.64453125 C32.9506014 41.96015518 35.98882588 45.43852917 39 49 C40.26650391 50.485 40.26650391 50.485 41.55859375 52 C43.94052632 54.79665527 46.30695331 57.60600719 48.66845703 60.41992188 C49.84237334 61.81295201 51.02774223 63.19631371 52.21484375 64.578125 C62.71812921 77.01777035 72.18275818 90.60963621 79.89404297 104.95019531 C81.2382158 107.44151431 82.60557711 109.91961584 83.97265625 112.3984375 C105.01694664 150.66950344 105.01694664 150.66950344 102 165 C99.4545955 168.24511525 98.53771218 168.9165619 94.375 169.5625 C84.1517875 168.9589155 75.643074 161.06656526 68 155 C67.11570312 154.29875 66.23140625 153.5975 65.3203125 152.875 C52.3438604 142.40142442 40.02195058 131.25628487 27.91357422 119.80029297 C24.94524812 117.00768814 21.94122878 114.25440396 18.9375 111.5 C15.49155815 108.33830794 12.09632019 105.14361801 8.8125 101.8125 C5.97997404 98.97997404 5.15897301 98.22075676 1.375 97.5 C-3.82974955 98.27107401 -6.35482056 101.36701179 -10 105 C-10.46245117 105.46083984 -10.92490234 105.92167969 -11.40136719 106.39648438 C-13.46678191 108.45785719 -15.527987 110.52324937 -17.58105469 112.59692383 C-20.85609853 115.89618527 -24.21111578 119.02267953 -27.75390625 122.03515625 C-30.21717855 124.18998401 -32.59965602 126.41824155 -34.98486328 128.65869141 C-40.55471606 133.88926381 -46.19161946 138.92257702 -52.16796875 143.69140625 C-54.25652624 145.3939407 -56.2860204 147.11654621 -58.30078125 148.90234375 C-81.10078265 169.06702446 -81.10078265 169.06702446 -92.0625 169.4375 C-96 169 -96 169 -98.5 167.25 C-101.85990335 159.97020941 -100.49104053 152.63867952 -98 145.25 C-95.15080351 137.9589382 -91.70762861 130.99665409 -88.078125 124.06640625 C-87.00531166 122.01018069 -85.95438588 119.94389507 -84.90625 117.875 C-71.32819049 91.33422907 -53.43593658 67.21179676 -33.19140625 45.375 C-31.26472151 43.28689961 -29.40577475 41.16138127 -27.5625 39 C-24.74511914 35.72413027 -21.69129573 32.79087286 -18.5625 29.8125 C-9.94381213 21.41864747 -4.5946981 11.02285745 0 0 Z " fill="#6BD5F2" transform="translate(243,250)"/>
<path d="M0 0 C2.23638651 2.45281101 2.38584562 3.32351785 2.625 6.5625 C1.50719592 26.33903366 -21.22330198 45.78555764 -33.8671875 59.68359375 C-35.70970152 61.73265293 -37.5216641 63.80214298 -39.328125 65.8828125 C-43.10134751 70.20233157 -47.00142522 74.39157022 -50.9375 78.5625 C-51.63423828 79.30749756 -52.33097656 80.05249512 -53.04882812 80.82006836 C-55.99055156 83.95095145 -58.91824777 87.05791766 -62.1015625 89.9453125 C-67.02746525 94.23284565 -67.02746525 94.23284565 -69.0625 100.1875 C-68.35956284 105.44919141 -64.71318302 108.5723219 -61.0625 112.125 C-60.09760978 113.08719122 -59.13415796 114.05082627 -58.171875 115.015625 C-56.61135414 116.5781259 -55.04896323 118.13838652 -53.47875977 119.69116211 C-50.0310506 123.10851886 -46.78500417 126.6348922 -43.63671875 130.33203125 C-42.0148281 132.17929629 -40.31589795 133.90256714 -38.5625 135.625 C-32.28179728 141.82196001 -26.7686 148.65902034 -21.21484375 155.50390625 C-19.36999637 157.75053527 -17.48460679 159.94476856 -15.5625 162.125 C-13.0625 165.125 -13.0625 165.125 -12.0625 168.125 C-10.88418756 169.26964637 -9.70535371 170.41376261 -8.5234375 171.5546875 C-2.63106173 177.8882037 3.15630986 186.82950082 3.1875 195.6875 C3.105 196.821875 3.0225 197.95625 2.9375 199.125 C-2.44868963 202.52680397 -6.8908695 202.96322412 -13.0625 202.125 C-59.27647401 191.21872246 -105.94020448 152.75541334 -138 118.9375 C-146.17777614 110.6810914 -156.4311851 105.55648998 -167.0625 101.125 C-165.58156401 98.16312801 -163.20991732 98.00620937 -160.2421875 96.94677734 C-148.25424436 92.42712942 -139.47513917 84.13408853 -130.81640625 74.9921875 C-127.11544642 71.10073709 -123.15483302 67.59686723 -119.0625 64.125 C-118.01816952 63.22402747 -116.97389415 62.32299105 -115.9296875 61.421875 C-88.21142196 37.82878214 -55.22117265 12.03447921 -20 1.3125 C-19.31317139 1.10238281 -18.62634277 0.89226562 -17.91870117 0.67578125 C-11.4894461 -1.19521019 -6.51583794 -1.86166798 0 0 Z " fill="#6ED6F2" transform="translate(424.0625,135.875)"/>
<path d="M0 0 C12.0687575 0.12558244 21.09091145 4.58621144 31.58935547 10.06445312 C34.19597609 11.41396139 36.81761631 12.73108036 39.44140625 14.046875 C57.46959768 23.16431703 74.27874288 33.60199021 90 46.3125 C91.33189553 47.376472 92.66393482 48.44026406 93.99609375 49.50390625 C100.77711856 54.94361205 107.44273062 60.46102296 113.84765625 66.34375 C115.84370099 68.16953321 117.87975666 69.93200065 119.9375 71.6875 C123.20995683 74.50925919 126.14734245 77.55769936 129.125 80.6875 C137.82514041 89.62203405 148.48774829 95.63711614 160 100.3125 C156.70214952 103.01738721 153.23080872 104.70033762 149.375 106.5 C138.95347304 111.59099128 131.30600345 118.88518168 123.25317383 127.09448242 C118.89122596 131.51347251 114.37342603 135.45909337 109.5 139.3125 C107.14594114 141.19574708 104.91459982 143.15690899 102.6875 145.1875 C77.16571527 167.97320588 34.99439988 201.35502648 -0.875 202.9375 C-3.70123183 202.70360495 -5.06470544 202.27860668 -7.625 200.9375 C-9.85790884 196.67467403 -9.82848397 193.00946958 -9 188.3125 C-3.9948966 173.95695344 9.19853221 160.94403 19.4921875 150.03515625 C21.9384601 147.37931201 24.1932712 144.63990653 26.4375 141.8125 C30.24356767 137.07712317 34.36622008 132.82935851 38.69677734 128.58422852 C42.02481755 125.31635928 45.12178082 121.94811814 48.13671875 118.39453125 C51.06762579 115.11953449 54.21158848 112.0592783 57.35766602 108.99194336 C60.16308488 106.23797284 61.74406878 104.57160688 62.53515625 100.6796875 C61.70045598 95.42777776 58.23476689 92.95039007 54.4375 89.4375 C53.01705904 88.08853594 51.59907597 86.7369789 50.18359375 85.3828125 C49.48411621 84.71604492 48.78463867 84.04927734 48.06396484 83.36230469 C45.41882476 80.73531201 42.98631339 77.96098331 40.57641602 75.11865234 C38.95762498 73.26394953 37.25820064 71.53478736 35.5 69.8125 C31.78786555 66.14942459 28.40029175 62.26402302 25 58.3125 C23.98375324 57.14784352 22.96676075 55.98383752 21.94921875 54.8203125 C-9.55778191 18.74521119 -9.55778191 18.74521119 -9.3359375 4.4140625 C-8.49608582 -0.83989334 -4.37818733 0.01324049 0 0 Z " fill="#6DD6F2" transform="translate(71,135.6875)"/>
<path d="M0 0 C1.31949207 0.73332893 2.62784713 1.48697033 3.92578125 2.2578125 C4.62276123 2.66128906 5.31974121 3.06476562 6.0378418 3.48046875 C12.7159131 7.46052271 18.41213176 12.24113372 24.23828125 17.3828125 C26.06581549 18.86913808 27.89909056 20.34843521 29.73828125 21.8203125 C34.74515459 25.90239538 39.49390995 30.20833517 44.21875 34.609375 C46.47663892 36.70410288 48.78068848 38.73761953 51.10546875 40.7578125 C55.21293267 44.33718087 59.20722351 48.02560528 63.17578125 51.7578125 C63.86945801 52.40830566 64.56313477 53.05879883 65.27783203 53.72900391 C69.8275946 58.01082065 74.28621946 62.35887235 78.63671875 66.84375 C80.88998073 69.0090798 82.21373731 69.37832464 85.3359375 69.94921875 C91.20902864 69.09676808 93.771522 65.56896185 97.67578125 61.3203125 C99.10945382 59.80619857 100.54563766 58.29445837 101.984375 56.78515625 C102.69166748 56.03943359 103.39895996 55.29371094 104.12768555 54.52539062 C106.72161855 51.89215106 109.46332248 49.48778118 112.27124023 47.0871582 C115.6352633 44.17239526 118.82684187 41.07550472 122.05078125 38.0078125 C127.38648604 32.96898151 132.79145447 28.12528163 138.5390625 23.5546875 C141.065328 21.52197604 143.51763263 19.4270964 145.96704102 17.30371094 C168.86044098 -2.45597879 168.86044098 -2.45597879 184.23828125 -1.6171875 C187.91015199 5.72655398 186.30859079 13.77277659 184.23828125 21.3828125 C181.04891116 29.99622806 176.97506337 38.18360328 172.73828125 46.3203125 C172.43559326 46.90208252 172.13290527 47.48385254 171.82104492 48.08325195 C159.26552819 72.13680643 144.24228608 94.08787891 126.23828125 114.3828125 C125.0085257 115.79896801 123.77926223 117.21555119 122.55078125 118.6328125 C121.44818246 119.88419571 120.34395317 121.13414375 119.23828125 122.3828125 C118.56667969 123.14722656 117.89507812 123.91164063 117.203125 124.69921875 C113.22824374 129.17884684 109.16334953 133.40367563 104.80078125 137.5078125 C96.55550348 145.64871966 90.56694012 155.67215658 86.23828125 166.3828125 C85.57828125 166.3828125 84.91828125 166.3828125 84.23828125 166.3828125 C83.74199219 165.33222656 83.24570313 164.28164062 82.734375 163.19921875 C76.62532976 150.47596014 69.32447016 141.30419212 59.30859375 131.44140625 C55.74555985 127.91800923 52.45693388 124.2215086 49.23828125 120.3828125 C48.36660973 119.36266192 47.49414361 118.34319 46.62109375 117.32421875 C41.32814299 111.13172933 36.15091142 104.88366247 31.23828125 98.3828125 C30.78807617 97.79064941 30.33787109 97.19848633 29.87402344 96.58837891 C13.23828125 74.6944584 13.23828125 74.6944584 13.23828125 70.3828125 C12.57828125 70.3828125 11.91828125 70.3828125 11.23828125 70.3828125 C9.08105811 66.53115479 6.93103301 62.67558427 4.78686523 58.81665039 C4.06051761 57.51158677 3.33240036 56.20750608 2.60229492 54.90454102 C-17.90321577 18.29463338 -17.90321577 18.29463338 -15.76171875 2.3828125 C-12.06032625 -3.16927625 -5.63736355 -2.77715558 0 0 Z " fill="#70D6F3" transform="translate(158.76171875,55.6171875)"/>
<path d="M0 0 C5.67390354 4.5846725 10.66383345 9.41280507 14.23828125 15.80859375 C13.26761719 16.123125 12.29695313 16.43765625 11.296875 16.76171875 C5.90170858 19.0787779 2.28739561 23.37348973 -1.69921875 27.55859375 C-6.60634746 32.636369 -11.50954559 37.58220831 -16.87475586 42.17773438 C-19.85871675 44.75670432 -22.70572796 47.47782191 -25.57421875 50.18359375 C-30.54029863 54.83067197 -35.61087327 59.25585101 -40.9296875 63.5 C-43.01824499 65.20253445 -45.04773915 66.92513996 -47.0625 68.7109375 C-69.8625014 88.87561821 -69.8625014 88.87561821 -80.82421875 89.24609375 C-84.76171875 88.80859375 -84.76171875 88.80859375 -87.26171875 87.05859375 C-90.6216221 79.77880316 -89.25275928 72.44727327 -86.76171875 65.05859375 C-83.91252226 57.76753195 -80.46934736 50.80524784 -76.83984375 43.875 C-75.76703041 41.81877444 -74.71610463 39.75248882 -73.66796875 37.68359375 C-68.37911717 27.3489311 -62.45523552 17.49284719 -56.05566406 7.80810547 C-54.98584185 6.15492737 -53.9850976 4.45727295 -53.00390625 2.75 C-49.75567697 -2.42845976 -46.09343445 -4.23653313 -40.26171875 -5.75390625 C-26.13360507 -8.85624152 -12.09761119 -8.61659341 0 0 Z " fill="#0C5E75" transform="translate(231.76171875,330.19140625)"/>
<path d="M0 0 C0.33 0 0.66 0 1 0 C1.185625 0.825 1.37125 1.65 1.5625 2.5 C4.73074244 10.21398159 11.7345421 15.78449969 17.58422852 21.56567383 C21.0308256 24.98408676 24.27749775 28.50989446 27.42578125 32.20703125 C29.0476719 34.05429629 30.74660205 35.77756714 32.5 37.5 C38.78070272 43.69696001 44.2939 50.53402034 49.84765625 57.37890625 C51.69250363 59.62553527 53.57789321 61.81976856 55.5 64 C58 67 58 67 59 70 C60.17831244 71.14464637 61.35714629 72.28876261 62.5390625 73.4296875 C68.43143827 79.7632037 74.21880986 88.70450082 74.25 97.5625 C74.1675 98.696875 74.085 99.83125 74 101 C68.61381037 104.40180397 64.1716305 104.83822412 58 104 C34.48177345 98.44981066 12.34986227 83.65580493 -7.5625 70.5 C-8.47378662 69.90026367 -9.38507324 69.30052734 -10.32397461 68.68261719 C-11.16710205 68.11704102 -12.01022949 67.55146484 -12.87890625 66.96875 C-13.6272876 66.46794922 -14.37566895 65.96714844 -15.14672852 65.45117188 C-20.40760897 61.3317313 -21.14847646 54.2617958 -22 48 C-23.35819519 33.99126913 -22.15011825 23.4936921 -13.125 12.1875 C-10.21416529 9.04564666 -7.0001558 6.24625598 -3.734375 3.48046875 C-1.91019463 1.96268408 -1.91019463 1.96268408 0 0 Z " fill="#0C5E75" transform="translate(353,234)"/>
<path d="M0 0 C3.67187074 7.34374148 2.07030954 15.38996409 0 23 C-3.18942865 31.61357373 -7.26399824 39.80024567 -11.5 47.9375 C-12.10658447 49.10394043 -12.71316895 50.27038086 -13.33813477 51.47216797 C-17.29048183 59.00709469 -21.46521308 66.38456261 -25.9375 73.625 C-26.44410156 74.44605225 -26.95070313 75.26710449 -27.47265625 76.11303711 C-28.94123084 78.43916122 -30.45256886 80.72564863 -32 83 C-32.55268555 83.82201904 -33.10537109 84.64403809 -33.67480469 85.4909668 C-38.4326001 92.13655414 -42.65137732 93.89354042 -50.59375 95.41015625 C-62.72452734 97.21081851 -74.08243104 97.38783878 -84.54296875 90.26953125 C-90.33702175 85.87797217 -95.65421584 80.85102783 -100 75 C-100 74.34 -100 73.68 -100 73 C-98.75863281 72.49726563 -98.75863281 72.49726563 -97.4921875 71.984375 C-92.8921042 69.68028636 -89.64416829 65.92334138 -86.125 62.25 C-81.56167477 57.53720169 -76.95932134 53.00485446 -71.98242188 48.72851562 C-68.62067666 45.79733876 -65.41807372 42.69900504 -62.1875 39.625 C-56.85179521 34.58616901 -51.44682678 29.74246913 -45.69921875 25.171875 C-43.17295325 23.13916354 -40.72064862 21.0442839 -38.27124023 18.92089844 C-15.37784027 -0.83879129 -15.37784027 -0.83879129 0 0 Z " fill="#0B5E75" transform="translate(343,54)"/>
<path d="M0 0 C12.0687575 0.12558244 21.09091145 4.58621144 31.58935547 10.06445312 C34.19597609 11.41396139 36.81761631 12.73108036 39.44140625 14.046875 C51.81490644 20.30660806 63.69137385 27.08080951 75.09399414 34.99047852 C76.66485573 36.08004115 78.26802718 37.12286744 79.87890625 38.15234375 C82.97587077 41.30634261 83.75491927 44.65467886 84.8125 48.875 C85.02261719 49.68203369 85.23273438 50.48906738 85.44921875 51.32055664 C88.45610224 63.50307201 87.53007603 74.42017787 81.3125 85.5 C78.15358487 90.45053864 74.28017877 94.332375 70 98.3125 C69.03772576 99.30870834 68.07874037 100.30811855 67.125 101.3125 C65 103.3125 65 103.3125 63 103.3125 C62.81824219 102.31089844 62.63648438 101.30929688 62.44921875 100.27734375 C61.00596726 95.2468344 57.54848621 92.35617831 53.8125 88.875 C52.44224912 87.55521162 51.07373467 86.23361785 49.70703125 84.91015625 C49.05814941 84.28641113 48.40926758 83.66266602 47.74072266 83.02001953 C45.15171037 80.48039093 42.80696508 77.76768316 40.46875 75 C38.88737031 73.18309567 37.21802804 71.5003872 35.5 69.8125 C31.78786555 66.14942459 28.40029175 62.26402302 25 58.3125 C23.98375324 57.14784352 22.96676075 55.98383752 21.94921875 54.8203125 C-9.55778191 18.74521119 -9.55778191 18.74521119 -9.3359375 4.4140625 C-8.49608582 -0.83989334 -4.37818733 0.01324049 0 0 Z " fill="#0B5D74" transform="translate(71,135.6875)"/>
<path d="M0 0 C4.40877858 3.06697641 8.58595296 6.79813519 9.99609375 12.11328125 C11.13722416 20.54715315 10.15648737 26.40050137 5.3359375 33.625 C3.43259718 35.76306861 1.76277478 36.99059938 -0.6640625 38.625 C-1.5303125 39.223125 -2.3965625 39.82125 -3.2890625 40.4375 C-9.36296875 42.57461516 -15.49358657 42.92437538 -21.5234375 40.453125 C-28.52092757 36.43681413 -32.39841322 32.45093022 -34.6640625 24.625 C-35.52246776 18.04664427 -35.6515931 12.26871718 -31.9765625 6.5625 C-23.61580707 -4.12830202 -11.90308317 -6.60865186 0 0 Z " fill="#75D8F3" transform="translate(256.6640625,382.375)"/>
<path d="M0 0 C4.40877858 3.06697641 8.58595296 6.79813519 9.99609375 12.11328125 C11.13722416 20.54715315 10.15648737 26.40050137 5.3359375 33.625 C3.43259718 35.76306861 1.76277478 36.99059938 -0.6640625 38.625 C-1.5303125 39.223125 -2.3965625 39.82125 -3.2890625 40.4375 C-9.1840185 42.51165119 -15.23687816 42.70479781 -21.23046875 40.81640625 C-27.24012248 37.87767541 -30.5958966 33.47643068 -33.6640625 27.625 C-35.63855786 21.70151391 -35.95427675 14.72776436 -33.53515625 8.91015625 C-30.62297001 4.34038098 -27.5003834 1.19751112 -22.6640625 -1.375 C-21.9215625 -1.7875 -21.1790625 -2.2 -20.4140625 -2.625 C-12.95109689 -4.66035426 -6.73632435 -3.74004128 0 0 Z " fill="#69D5F2" transform="translate(256.6640625,52.375)"/>
<path d="M0 0 C3.84816858 2.64934153 7.32953127 5.86000006 8.89453125 10.359375 C10.12231302 17.57259289 10.74642264 25.22317483 6.76953125 31.625 C2.97692925 36.47411255 -2.94224103 41.08897153 -9.19921875 41.87109375 C-17.18557805 42.21071985 -22.62547947 40.87361705 -28.73046875 35.5625 C-33.9914684 29.12565481 -35.1995183 23.15415809 -35.14453125 14.93359375 C-34.35225754 8.4832899 -30.74500189 4.52666981 -26.23046875 0.125 C-17.63385797 -5.24788174 -8.69122835 -4.81781477 0 0 Z " fill="#5DD1F1" transform="translate(421.73046875,217.4375)"/>
<path d="M0 0 C3.84816858 2.64934153 7.32953127 5.86000006 8.89453125 10.359375 C10.12231302 17.57259289 10.74642264 25.22317483 6.76953125 31.625 C2.56014242 36.99422044 -3.21996382 40.96960501 -10.078125 41.87109375 C-17.71037714 42.23348846 -22.88871285 40.562201 -28.73046875 35.5625 C-33.99665925 29.13411574 -35.19947513 23.14770395 -35.14453125 14.93359375 C-34.35225754 8.4832899 -30.74500189 4.52666981 -26.23046875 0.125 C-17.63385797 -5.24788174 -8.69122835 -4.81781477 0 0 Z " fill="#80DBF4" transform="translate(91.73046875,217.4375)"/>
<path d="M0 0 C0.66 0.33 1.32 0.66 2 1 C-2.62 5.62 -7.24 10.24 -12 15 C-12.33 14.34 -12.66 13.68 -13 13 C-9.13242719 8.04467233 -4.81123996 4.03523352 0 0 Z " fill="#144E5F" transform="translate(351,236)"/>
<path d="M0 0 C0.99 0.33 1.98 0.66 3 1 C2.50886719 1.34675781 2.01773438 1.69351563 1.51171875 2.05078125 C-0.77745767 5.00245834 -0.2884377 7.52009699 -0.1875 11.1875 C-0.16042969 12.45980469 -0.13335937 13.73210937 -0.10546875 15.04296875 C-0.07066406 16.01878906 -0.03585938 16.99460937 0 18 C-2.30821663 14.53767506 -2.27000989 13.08201684 -2.25 9 C-2.25515625 7.948125 -2.2603125 6.89625 -2.265625 5.8125 C-2 3 -2 3 0 0 Z " fill="#9EE4F7" transform="translate(145,55)"/>
<path d="M0 0 C0.66 0.33 1.32 0.66 2 1 C-1.3 4.3 -4.6 7.6 -8 11 C-8 7.0234755 -6.61988497 5.9109833 -4 3 C-1.75 1.1875 -1.75 1.1875 0 0 Z " fill="#90E0F6" transform="translate(233,381)"/>
<path d="M0 0 C0.66 0.33 1.32 0.66 2 1 C-1.3 4.3 -4.6 7.6 -8 11 C-8 7.0234755 -6.61988497 5.9109833 -4 3 C-1.75 1.1875 -1.75 1.1875 0 0 Z " fill="#7EDAF4" transform="translate(398,216)"/>
<path d="M0 0 C0.66 0.33 1.32 0.66 2 1 C-1.3 4.3 -4.6 7.6 -8 11 C-8 7.0234755 -6.61988497 5.9109833 -4 3 C-1.75 1.1875 -1.75 1.1875 0 0 Z " fill="#9AE3F6" transform="translate(68,216)"/>
<path d="M0 0 C0.66 0.33 1.32 0.66 2 1 C-0.97 3.97 -3.94 6.94 -7 10 C-7 6.04435836 -5.59478606 4.89133304 -3 2 C-2.01 1.34 -1.02 0.68 0 0 Z " fill="#84DCF5" transform="translate(232,52)"/>
<path d="M0 0 C0.66 0 1.32 0 2 0 C1.50886719 0.82757813 1.50886719 0.82757813 1.0078125 1.671875 C-0.16787715 4.38780923 -0.20248638 6.30551759 -0.125 9.25 C-0.10695312 10.14203125 -0.08890625 11.0340625 -0.0703125 11.953125 C-0.04710937 12.62859375 -0.02390625 13.3040625 0 14 C-2 12 -2 12 -2.265625 9.6875 C-2.26046875 8.800625 -2.2553125 7.91375 -2.25 7 C-2.25515625 6.113125 -2.2603125 5.22625 -2.265625 4.3125 C-2 2 -2 2 0 0 Z " fill="#3F9DB7" transform="translate(64,136)"/>
<path d="M0 0 C0.66 0 1.32 0 2 0 C2.33 1.32 2.66 2.64 3 4 C0.525 5.485 0.525 5.485 -2 7 C-1.34 4.69 -0.68 2.38 0 0 Z " fill="#91E0F6" transform="translate(243,250)"/>
</svg>
